<?xml version="1.0" standalone="no"?>
<!DOCTYPE svg PUBLIC "-//W3C//DTD SVG 20010904//EN"
 "http://www.w3.org/TR/2001/REC-SVG-20010904/DTD/svg10.dtd">
<svg version="1.0" xmlns="http://www.w3.org/2000/svg"
 width="300.000000pt" height="300.000000pt" viewBox="0 0 300.000000 300.000000"
 preserveAspectRatio="xMidYMid meet">

<g transform="translate(0.000000,300.000000) scale(0.100000,-0.100000)"
fill="#000000" stroke="none">
<path d="M2236 1656 c-3 -14 -11 -26 -17 -26 -8 0 -7 -5 1 -15 19 -22 28 -18
35 16 9 38 -10 62 -19 25z"/>
<path d="M1510 1577 c0 -36 -5 -68 -12 -75 -19 -19 -82 -15 -103 8 -17 19 -18
19 -43 0 -18 -15 -40 -20 -83 -20 -51 0 -63 4 -91 29 l-32 29 -28 -30 c-26
-28 -32 -30 -75 -24 -59 7 -67 7 -126 0 -35 -4 -54 -2 -72 10 -33 21 -32 2 0
-30 23 -23 32 -25 78 -20 64 6 60 7 125 0 48 -6 54 -4 80 24 l28 30 32 -29
c28 -25 41 -29 90 -29 36 0 66 6 80 16 20 14 24 14 44 0 23 -17 84 -21 105 -8
6 4 13 39 15 77 2 39 8 78 12 88 6 12 4 17 -8 17 -13 0 -16 -12 -16 -63z"/>
<path d="M1900 1577 c0 -36 -5 -68 -12 -75 -17 -17 -83 -15 -98 3 -11 13 -15
13 -41 0 -56 -29 -199 -10 -199 27 0 6 -3 9 -6 6 -3 -4 1 -19 10 -36 21 -41
61 -55 138 -48 88 8 99 8 135 0 18 -3 44 -3 58 0 23 6 25 10 25 71 0 35 5 67
10 70 16 10 12 45 -5 45 -12 0 -15 -14 -15 -63z"/>
<path d="M2240 1539 c0 -43 -85 -65 -145 -37 -19 9 -28 9 -37 0 -15 -15 -73
-16 -99 -2 -26 14 -25 -4 1 -30 23 -23 79 -27 110 -8 15 10 22 10 32 0 19 -19
112 -15 130 6 22 24 29 54 18 72 -8 13 -10 13 -10 -1z"/>
</g>
</svg>
