<?xml version="1.0" encoding="UTF-8" standalone="no"?>
<!-- Created with Inkscape (http://www.inkscape.org/) -->
<svg
   xmlns:dc="http://purl.org/dc/elements/1.1/"
   xmlns:cc="http://creativecommons.org/ns#"
   xmlns:rdf="http://www.w3.org/1999/02/22-rdf-syntax-ns#"
   xmlns:svg="http://www.w3.org/2000/svg"
   xmlns="http://www.w3.org/2000/svg"
   xmlns:sodipodi="http://sodipodi.sourceforge.net/DTD/sodipodi-0.dtd"
   xmlns:inkscape="http://www.inkscape.org/namespaces/inkscape"
   width="744.09448"
   height="1052.3622"
   id="svg2"
   sodipodi:version="0.32"
   inkscape:version="0.46"
   sodipodi:docname="1.svg"
   inkscape:output_extension="org.inkscape.output.svg.inkscape"
   version="1.0"
   style="display:inline">
  <defs
     id="defs4">
    <inkscape:perspective
       sodipodi:type="inkscape:persp3d"
       inkscape:vp_x="0 : 526.18109 : 1"
       inkscape:vp_y="0 : 1000 : 0"
       inkscape:vp_z="744.09448 : 526.18109 : 1"
       inkscape:persp3d-origin="372.04724 : 350.78739 : 1"
       id="perspective10" />
    <inkscape:perspective
       id="perspective2390"
       inkscape:persp3d-origin="372.04724 : 350.78739 : 1"
       inkscape:vp_z="744.09448 : 526.18109 : 1"
       inkscape:vp_y="0 : 1000 : 0"
       inkscape:vp_x="0 : 526.18109 : 1"
       sodipodi:type="inkscape:persp3d" />
  </defs>
  <sodipodi:namedview
     id="base"
     pagecolor="#ffffff"
     bordercolor="#666666"
     borderopacity="1.0"
     gridtolerance="10000"
     guidetolerance="10"
     objecttolerance="10"
     inkscape:pageopacity="0.0"
     inkscape:pageshadow="2"
     inkscape:zoom="0.7"
     inkscape:cx="535.84615"
     inkscape:cy="312.50802"
     inkscape:document-units="px"
     inkscape:current-layer="layer11"
     showgrid="false"
     inkscape:window-width="1280"
     inkscape:window-height="972"
     inkscape:window-x="0"
     inkscape:window-y="30" />
  <metadata
     id="metadata7">
    <rdf:RDF>
      <cc:Work
         rdf:about="">
        <dc:format>image/svg+xml</dc:format>
        <dc:type
           rdf:resource="http://purl.org/dc/dcmitype/StillImage" />
      </cc:Work>
    </rdf:RDF>
  </metadata>
  <g
     inkscape:groupmode="layer"
     id="layer10"
     inkscape:label="фон">
    <rect
       style="fill:#ff890b;fill-opacity:1;stroke:none;stroke-width:3;stroke-linecap:round;stroke-miterlimit:4;stroke-dasharray:none;stroke-dashoffset:0;stroke-opacity:1"
       id="rect3361"
       width="605.08136"
       height="557.60419"
       x="102.02541"
       y="304.8493"
       inkscape:export-filename="/home/lunick/Мои работы/Перерисованное/Фрай/path3325.png"
       inkscape:export-xdpi="44.540146"
       inkscape:export-ydpi="44.540146" />
  </g>
  <g
     inkscape:groupmode="layer"
     id="layer11"
     inkscape:label="футболка">
    <path
       style="fill:#e6e6e6;fill-rule:evenodd;stroke:none;stroke-width:1px;stroke-linecap:round;stroke-linejoin:miter;stroke-opacity:1"
       d="M 359.46429,682.18361 L 443.03571,675.75504 L 491.25,862.18362 L 413.75,862.54076 C 395.65476,802.42171 244.74724,713.84289 359.46429,682.18361 z"
       id="path3363"
       sodipodi:nodetypes="ccccc"
       inkscape:export-filename="/home/lunick/Мои работы/Перерисованное/Фрай/path3325.png"
       inkscape:export-xdpi="44.540146"
       inkscape:export-ydpi="44.540146" />
  </g>
  <g
     inkscape:groupmode="layer"
     id="layer9"
     inkscape:label="левая сторона">
    <g
       id="g3372"
       style="stroke-linecap:round"
       inkscape:export-filename="/home/lunick/Мои работы/Перерисованное/Фрай/path3325.png"
       inkscape:export-xdpi="44.540146"
       inkscape:export-ydpi="44.540146">
      <path
         sodipodi:nodetypes="cccccsc"
         id="path3337"
         d="M 476.36298,862.28596 L 706.72012,863.71452 C 651.93171,761.19692 616.46195,638.80869 476.60129,611.90343 L 463.86298,616.57167 L 446.00584,638.71452 C 441.81627,638.11601 440.84542,761.99406 445.64869,764.78595 C 450.39079,767.54228 489.69074,856.39829 476.36298,862.28596 z"
         style="fill:#7d0504;fill-opacity:1;fill-rule:evenodd;stroke:none;stroke-width:1px;stroke-linecap:round;stroke-linejoin:miter;stroke-opacity:1;display:inline" />
      <path
         sodipodi:nodetypes="ccc"
         id="path3329"
         d="M 447.43441,726.57167 C 450.11522,693.2526 464.66874,686.27611 497.79155,720.50024 C 489.44534,667.83942 475.65228,647.85968 463.86298,615.85738"
         style="fill:#800a08;fill-opacity:1;fill-rule:evenodd;stroke:#000000;stroke-width:3;stroke-linecap:round;stroke-linejoin:miter;stroke-miterlimit:4;stroke-dasharray:none;stroke-opacity:1" />
      <path
         sodipodi:nodetypes="ccc"
         id="path3331"
         d="M 441.72012,675.85738 C 442.14755,704.28886 439.17963,731.26519 445.64869,762.28595 C 458.05137,795.98077 479.53724,831.49224 479.22012,862.6431"
         style="fill:none;fill-rule:evenodd;stroke:#000000;stroke-width:3;stroke-linecap:round;stroke-linejoin:miter;stroke-miterlimit:4;stroke-dasharray:none;stroke-opacity:1" />
      <path
         sodipodi:nodetypes="cc"
         id="path3333"
         d="M 476.00584,611.57167 C 628.40386,639.43164 674.35755,812.56065 706.72012,863.71452"
         style="fill:none;fill-rule:evenodd;stroke:#000000;stroke-width:3;stroke-linecap:round;stroke-linejoin:miter;stroke-miterlimit:4;stroke-dasharray:none;stroke-opacity:1" />
      <path
         sodipodi:nodetypes="cc"
         id="path3335"
         d="M 526.36298,706.21452 C 530.21489,757.31298 583.10993,802.84154 606.00584,865.1431"
         style="fill:none;fill-rule:evenodd;stroke:#000000;stroke-width:3;stroke-linecap:round;stroke-linejoin:miter;stroke-miterlimit:4;stroke-dasharray:none;stroke-opacity:1" />
    </g>
  </g>
  <g
     inkscape:groupmode="layer"
     id="layer2"
     inkscape:label="голова"
     style="display:inline">
    <g
       id="g3247"
       style="stroke-linecap:round"
       inkscape:export-filename="/home/lunick/Мои работы/Перерисованное/Фрай/path3325.png"
       inkscape:export-xdpi="44.540146"
       inkscape:export-ydpi="44.540146">
      <path
         sodipodi:nodetypes="ccccczcccc"
         id="path2396"
         d="M 404.50648,628.417 C 483.03145,615.13396 519.88755,595.89329 516.64934,587.52415 C 510.74956,581.61292 429.10918,482.96348 435.48863,479.667 C 453.25993,468.10317 448.30942,459.63358 430.93505,454.13129 C 413.79686,418.82323 396.38379,387.63843 377.36363,380.55986 C 284.23295,331.63935 251.92245,401.82389 243.43505,459.84557 C 234.94765,517.86725 322.45784,572.37736 358.7922,683.417 C 372.87303,691.30827 402.85726,704.16891 441.64934,676.27415 C 442.00859,662.49426 442.65311,649.99684 445.22076,638.417 C 458.42396,631.60604 461.13782,624.97825 462.27434,615.82772"
         style="fill:#e3a375;fill-opacity:1;fill-rule:evenodd;stroke:#000000;stroke-width:3;stroke-linecap:round;stroke-linejoin:miter;stroke-miterlimit:4;stroke-dasharray:none;stroke-opacity:1" />
      <path
         sodipodi:nodetypes="cc"
         id="path3245"
         d="M 405.22322,632.63004 C 404.00648,631.21035 402.49962,626.40002 403.57143,623.38897"
         style="fill:none;fill-rule:evenodd;stroke:#000000;stroke-width:3;stroke-linecap:round;stroke-linejoin:miter;stroke-miterlimit:4;stroke-dasharray:none;stroke-opacity:1" />
    </g>
  </g>
  <g
     inkscape:groupmode="layer"
     id="layer3"
     inkscape:label="Глаза"
     style="opacity:1;display:inline">
    <g
       id="g3189"
       style="stroke-linecap:round"
       inkscape:export-filename="/home/lunick/Мои работы/Перерисованное/Фрай/path3325.png"
       inkscape:export-xdpi="44.540146"
       inkscape:export-ydpi="44.540146">
      <path
         transform="matrix(0.9121265,0,0,0.9121265,100.46448,22.801094)"
         d="M 409.28572,527.7193 A 38.92857,39.642857 0 1 1 331.42858,527.7193 A 38.92857,39.642857 0 1 1 409.28572,527.7193 z"
         sodipodi:ry="39.642857"
         sodipodi:rx="38.92857"
         sodipodi:cy="527.7193"
         sodipodi:cx="370.35715"
         id="path3171"
         style="fill:#ffffff;stroke:#000000;stroke-width:3.28901743999999985;stroke-miterlimit:4;stroke-dasharray:none;stroke-dashoffset:0;stroke-linecap:round"
         sodipodi:type="arc" />
      <path
         transform="translate(1.0714286,2.5)"
         d="M 410.71428,524.68359 A 40.17857,40.17857 0 1 1 330.35714,524.68359 A 40.17857,40.17857 0 1 1 410.71428,524.68359 z"
         sodipodi:ry="40.17857"
         sodipodi:rx="40.17857"
         sodipodi:cy="524.68359"
         sodipodi:cx="370.53571"
         id="path3177"
         style="fill:#ffffff;stroke:#000000;stroke-width:3;stroke-miterlimit:4;stroke-dasharray:none;stroke-dashoffset:0;stroke-linecap:round"
         sodipodi:type="arc" />
      <path
         d="M 359.28571,536.64789 A 4.2857141,4.2857141 0 1 1 350.71429,536.64789 A 4.2857141,4.2857141 0 1 1 359.28571,536.64789 z"
         sodipodi:ry="4.2857141"
         sodipodi:rx="4.2857141"
         sodipodi:cy="536.64789"
         sodipodi:cx="355"
         id="path3181"
         style="fill:#000000;stroke:#000000;stroke-width:3;stroke-miterlimit:4;stroke-dasharray:none;stroke-dashoffset:0;stroke-linecap:round"
         sodipodi:type="arc" />
      <path
         d="M 431.07142,514.50507 A 4.2857141,4.2857141 0 1 1 422.49999,514.50507 A 4.2857141,4.2857141 0 1 1 431.07142,514.50507 z"
         sodipodi:ry="4.2857141"
         sodipodi:rx="4.2857141"
         sodipodi:cy="514.50507"
         sodipodi:cx="426.78571"
         id="path3183"
         style="fill:#000000;stroke:#000000;stroke-width:3;stroke-miterlimit:4;stroke-dasharray:none;stroke-dashoffset:0;stroke-linecap:round"
         sodipodi:type="arc" />
    </g>
  </g>
  <g
     inkscape:groupmode="layer"
     id="layer4"
     inkscape:label="Нос"
     style="display:inline">
    <path
       style="fill:#e3a375;fill-opacity:1;fill-rule:evenodd;stroke:#000000;stroke-width:3;stroke-linecap:round;stroke-linejoin:miter;stroke-miterlimit:4;stroke-dasharray:none;stroke-opacity:1"
       d="M 411.56297,530.49537 C 418.23695,530.04731 430.17517,532.11316 434.15225,541.03109 C 481.53046,534.22405 498.41345,583.50284 442.18797,571.5668"
       id="path3185"
       sodipodi:nodetypes="ccc"
       inkscape:export-filename="/home/lunick/Мои работы/Перерисованное/Фрай/path3325.png"
       inkscape:export-xdpi="44.540146"
       inkscape:export-ydpi="44.540146" />
  </g>
  <g
     inkscape:groupmode="layer"
     id="layer5"
     inkscape:label="Волосы"
     style="display:inline">
    <path
       style="fill:#bb5701;fill-opacity:1;fill-rule:evenodd;stroke:#000000;stroke-width:3;stroke-linecap:round;stroke-linejoin:miter;stroke-miterlimit:4;stroke-dasharray:none;stroke-opacity:1"
       d="M 290.78687,455.5437 C 287.73296,438.05487 389.88053,459.27379 452.43844,439.87042 C 479.95964,430.48531 463.81615,355.10029 390.42973,310.18655 C 403.82879,331.83037 411.46411,351.00401 418.28687,369.82941 C 393.50877,329.00999 372.17705,321.00016 351.14402,312.68655 C 359.37859,332.17512 368.69601,346.42083 372.92972,377.68655 C 282.28097,331.02239 261.32153,401.7981 255.42973,408.40084 C 243.97928,401.39885 234.24463,395.89551 221.8583,389.82941 C 227.73558,403.63893 234.65297,417.44846 235.07258,431.25798 C 214.25176,433.54077 202.79635,436.60401 193.28687,439.82941 C 193.61631,435.5467 229.86576,460.65428 226.14402,468.40084 C 212.56818,496.65806 219.92475,553.08537 278.28687,571.97227 L 315.78688,563.93655 C 310.9085,515.02121 291.13664,503.54121 274.89402,484.82941 C 287.54811,482.38667 299.43329,491.09323 311.14401,502.32941 C 312.83565,483.47365 301.0008,469.82039 290.78687,455.5437 z"
       id="path3198"
       sodipodi:nodetypes="ccccccccccsccccc"
       inkscape:export-filename="/home/lunick/Мои работы/Перерисованное/Фрай/path3325.png"
       inkscape:export-xdpi="44.540146"
       inkscape:export-ydpi="44.540146" />
  </g>
  <g
     inkscape:groupmode="layer"
     id="layer6"
     inkscape:label="Ухо"
     style="display:inline">
    <g
       id="g3239"
       style="stroke-linecap:round"
       inkscape:export-filename="/home/lunick/Мои работы/Перерисованное/Фрай/path3325.png"
       inkscape:export-xdpi="44.540146"
       inkscape:export-ydpi="44.540146">
      <path
         sodipodi:nodetypes="czc"
         id="path3222"
         d="M 320.16252,587.46665 C 309.44693,613.06941 286.68474,598.92063 279.84114,578.62504 C 273.00661,558.35633 294.49722,538.8846 316.5018,565.8595"
         style="fill:#e5a275;fill-opacity:1;fill-rule:evenodd;stroke:#000000;stroke-width:3;stroke-linecap:round;stroke-linejoin:miter;stroke-miterlimit:4;stroke-dasharray:none;stroke-opacity:1;display:inline" />
      <g
         id="g3235"
         style="stroke-linecap:round">
        <path
           style="fill:none;fill-rule:evenodd;stroke:#000000;stroke-width:3;stroke-linecap:round;stroke-linejoin:miter;stroke-miterlimit:4;stroke-dasharray:none;stroke-opacity:1"
           d="M 294.98395,565.50236 C 291.93718,574.82793 295.02651,579.95572 305.07324,583.09164"
           id="path3224"
           sodipodi:nodetypes="cc" />
        <path
           style="fill:none;fill-rule:evenodd;stroke:#000000;stroke-width:3;stroke-linecap:round;stroke-linejoin:miter;stroke-miterlimit:4;stroke-dasharray:none;stroke-opacity:1"
           d="M 288.19823,572.10951 C 293.18361,563.15156 299.10911,564.37815 305.51966,570.85951"
           id="path3226"
           sodipodi:nodetypes="cc" />
      </g>
    </g>
  </g>
  <g
     inkscape:groupmode="layer"
     id="layer7"
     inkscape:label="Рука правая"
     style="display:inline">
    <g
       id="g3261" />
    <g
       id="g3313"
       transform="translate(-4.0313083e-7,-0.7142857)"
       style="stroke-linecap:round"
       inkscape:export-filename="/home/lunick/Мои работы/Перерисованное/Фрай/path3325.png"
       inkscape:export-xdpi="44.540146"
       inkscape:export-ydpi="44.540146">
      <path
         sodipodi:nodetypes="cccccccccsccc"
         id="path3310"
         d="M 139.25781,550.13805 C 149.14985,523.70825 158.28813,498.23204 176.33939,470.89566 C 200.76572,449.2226 255.76319,445.42795 264.19653,450.53852 C 277.48669,476.41179 228.2804,479.72767 217.47209,477.2809 C 207.1141,481.32348 202.9647,484.47912 205.93861,486.61714 L 203.79203,483.83922 C 205.57974,491.2246 245.6221,478.39906 239.90499,507.57781 C 232.48748,507.90888 224.39569,509.92567 219.52566,503.88805 C 221.21084,511.36708 245.20417,505.79883 246.75781,510.22733 C 260.55743,534.85171 246.2973,543.74717 231.36477,557.15092 C 226.99673,561.07177 221.29117,555.63212 220.68638,552.63805 C 224.62932,540.83582 230.27201,539.89348 233.90438,536.16615 C 215.55866,554.42769 221.18317,567.58355 198.18638,570.49519"
         style="fill:#e3a375;fill-opacity:1;fill-rule:evenodd;stroke:#000000;stroke-width:3;stroke-linecap:round;stroke-linejoin:miter;stroke-miterlimit:4;stroke-dasharray:none;stroke-opacity:1;display:inline" />
      <g
         transform="translate(-0.9050841,1.1775612)"
         style="fill:#800a08;fill-opacity:1;display:inline;stroke-linecap:round"
         id="g3286">
        <path
           style="fill:#800a08;fill-opacity:1;fill-rule:evenodd;stroke:#000000;stroke-width:3;stroke-linecap:round;stroke-linejoin:miter;stroke-miterlimit:4;stroke-dasharray:none;stroke-opacity:1"
           d="M 329.30973,640.72502 C 306.57391,646.49917 265.97302,665.05236 222.73864,688.20219 C 224.73491,691.63213 224.22618,697.72454 223.24371,707.7739 C 225.23283,687.89704 224.52372,688.36588 214.65741,682.77263 C 207.92693,678.95709 210.59366,689.54228 212.38457,693.00041 C 204.31958,662.3106 220.37849,606.48831 196.97975,589.71232 C 173.34421,572.76655 150.00088,565.2645 126.01653,573.0448 C 75.410437,672.41226 136.20015,801.08325 176.20925,804.79277 C 233.75825,812.49501 311.43134,761.88555 328.19634,760.42853"
           id="path3282"
           sodipodi:nodetypes="cccsczccc" />
        <path
           style="fill:#800a08;fill-opacity:1;fill-rule:evenodd;stroke:#000000;stroke-width:3;stroke-linecap:round;stroke-linejoin:miter;stroke-miterlimit:4;stroke-dasharray:none;stroke-opacity:1"
           d="M 128.03684,572.03465 C 128.92275,564.41709 132.02849,557.53948 134.85536,550.56891 C 159.81476,547.52916 183.72976,548.87586 202.03051,573.80241 C 203.61748,580.28848 203.26632,586.24598 197.48482,590.72247 C 173.64164,572.35083 150.5334,566.84058 128.03684,572.03465 z"
           id="path3284"
           sodipodi:nodetypes="ccccc" />
      </g>
    </g>
  </g>
  <g
     inkscape:groupmode="layer"
     id="layer8"
     inkscape:label="толовище"
     style="display:inline">
    <path
       style="fill:#800a08;fill-opacity:1;fill-rule:evenodd;stroke:none;stroke-width:1px;stroke-linecap:round;stroke-linejoin:miter;stroke-opacity:1"
       d="M 333.85542,631.63365 C 334.61304,633.40142 320.97596,732.90145 320.97596,732.90145 C 333.87876,776.8898 354.16634,833.87991 359.86684,863.46366 L 419.97092,862.70604 C 413.04087,805.10627 373.9432,740.59209 357.02914,681.96518 C 350.3386,658.77467 337.4017,635.57736 333.85542,631.63365 z"
       id="path3327"
       sodipodi:nodetypes="ccccsc"
       inkscape:export-filename="/home/lunick/Мои работы/Перерисованное/Фрай/path3325.png"
       inkscape:export-xdpi="44.540146"
       inkscape:export-ydpi="44.540146" />
    <path
       style="fill:#800a08;fill-opacity:1;fill-rule:evenodd;stroke:#000000;stroke-width:3;stroke-linecap:round;stroke-linejoin:miter;stroke-miterlimit:4;stroke-dasharray:none;stroke-opacity:1;display:inline"
       d="M 334.22939,627.87996 C 314.90648,663.70399 326.20544,705.03691 340.74462,749.32647 C 339.86023,739.20742 346.77836,729.08838 354.31604,718.96933 C 362.28295,719.4092 368.18268,725.01702 374.31604,730.04076"
       id="path3319"
       sodipodi:nodetypes="cccc"
       inkscape:export-filename="/home/lunick/Мои работы/Перерисованное/Фрай/path3325.png"
       inkscape:export-xdpi="44.540146"
       inkscape:export-ydpi="44.540146" />
    <path
       style="fill:none;fill-rule:evenodd;stroke:#000000;stroke-width:3;stroke-linecap:round;stroke-linejoin:miter;stroke-miterlimit:4;stroke-dasharray:none;stroke-opacity:1"
       d="M 321.78571,731.29075 C 331.67091,781.51943 353.70828,826.40644 359.28571,863.43361"
       id="path3323"
       sodipodi:nodetypes="cc"
       inkscape:export-filename="/home/lunick/Мои работы/Перерисованное/Фрай/path3325.png"
       inkscape:export-xdpi="44.540146"
       inkscape:export-ydpi="44.540146" />
    <path
       style="fill:none;fill-rule:evenodd;stroke:#000000;stroke-width:3;stroke-linecap:round;stroke-linejoin:miter;stroke-miterlimit:4;stroke-dasharray:none;stroke-opacity:1"
       d="M 348.92857,654.86218 C 346.91266,653.59437 373.82603,736.32239 394.85619,779.43297 C 405.22918,800.69699 421.6915,860.48327 419.64286,864.1479"
       id="path3325"
       sodipodi:nodetypes="csc"
       inkscape:export-xdpi="44.540146"
       inkscape:export-ydpi="44.540146" />
  </g>
</svg>
